<?xml version="1.0" encoding="UTF-8" standalone="no"?>
<!DOCTYPE svg PUBLIC "-//W3C//DTD SVG 1.1//EN" "http://www.w3.org/Graphics/SVG/1.1/DTD/svg11.dtd">
<svg width="3334" height="3334" viewBox="0 0 3334 3334" version="1.1" xmlns="http://www.w3.org/2000/svg" xmlns:xlink="http://www.w3.org/1999/xlink" xml:space="preserve" xmlns:serif="http://www.serif.com/" style="fill-rule:evenodd;clip-rule:evenodd;stroke-linejoin:round;stroke-miterlimit:2;">
    <g transform="matrix(4.16667,0,0,4.16667,0,0)">
        <g transform="matrix(1.5625,0,0,1.5625,0,0)">
            <path d="M255.9,433.504C248.045,433.505 241.008,428.502 238.428,421.083C237.674,418.915 162.746,203.64 141.994,151.152C134.921,133.264 123.92,129.494 115.989,131.932C109.947,133.788 103.79,139.987 106.326,151.346C108.552,161.318 102.272,171.206 92.3,173.432C82.33,175.658 72.441,169.379 70.215,159.406C63.907,131.144 78.588,104.715 105.124,96.563C118.64,92.41 133.074,93.894 145.767,100.739C159.14,107.95 169.733,120.679 176.403,137.548C191.266,175.141 231.998,290.669 255.71,358.357C278.936,290.632 318.84,175.163 333.712,137.548C340.381,120.679 350.975,107.951 364.347,100.739C377.04,93.895 391.475,92.412 404.991,96.563C431.527,104.715 446.209,131.144 439.9,159.406C437.674,169.378 427.788,175.663 417.814,173.432C407.842,171.206 401.563,161.318 403.789,151.346C406.324,139.987 400.168,133.788 394.126,131.932C386.19,129.494 375.193,133.263 368.121,151.152C347.392,203.583 274.153,418.794 273.416,420.962C270.879,428.42 263.844,433.477 255.966,433.504L255.9,433.504Z" style="fill-rule:nonzero;"/>
        </g>
    </g>
</svg>
