<?xml version="1.0" encoding="UTF-8" standalone="no"?>
<!DOCTYPE svg PUBLIC "-//W3C//DTD SVG 1.1//EN" "http://www.w3.org/Graphics/SVG/1.1/DTD/svg11.dtd">
<svg width="3334" height="3334" viewBox="0 0 3334 3334" version="1.1" xmlns="http://www.w3.org/2000/svg" xmlns:xlink="http://www.w3.org/1999/xlink" xml:space="preserve" xmlns:serif="http://www.serif.com/" style="fill-rule:evenodd;clip-rule:evenodd;stroke-linejoin:round;stroke-miterlimit:2;">
    <g transform="matrix(4.16667,0,0,4.16667,0,0)">
        <g transform="matrix(1.5625,0,0,1.5625,0,0)">
            <path d="M417.492,255.934C417.492,245.717 409.21,237.434 398.992,237.434L343.426,237.434C347.213,187.667 366.883,140.276 399.793,102.416C406.496,94.705 405.679,83.02 397.968,76.317C390.257,69.614 378.572,70.43 371.869,78.143C333.104,122.738 310.176,178.735 306.325,237.434L199.829,237.434C195.978,178.735 173.05,122.738 134.286,78.143C127.582,70.432 115.897,69.614 108.187,76.317C100.476,83.02 99.658,94.705 106.361,102.416C139.271,140.276 158.941,187.667 162.728,237.434L108.341,237.434C98.124,237.434 89.841,245.717 89.841,255.934C89.841,266.151 98.124,274.434 108.341,274.434L162.601,274.434C158.515,323.611 138.915,370.387 106.361,407.836C99.658,415.547 100.475,427.232 108.187,433.935C111.547,436.865 115.858,438.478 120.316,438.473C125.486,438.473 130.628,436.318 134.286,432.11C172.695,387.925 195.551,332.545 199.714,274.434L306.44,274.434C310.603,332.545 333.46,387.925 371.869,432.11C375.379,436.157 380.482,438.481 385.839,438.473C390.142,438.473 394.466,436.98 397.968,433.935C405.679,427.232 406.496,415.547 399.793,407.836C367.239,370.386 347.639,323.61 343.553,274.434L398.992,274.434C409.21,274.434 417.492,266.151 417.492,255.934Z" style="fill-rule:nonzero;"/>
        </g>
    </g>
</svg>
