<?xml version="1.0" encoding="UTF-8" standalone="no"?>
<!DOCTYPE svg PUBLIC "-//W3C//DTD SVG 1.1//EN" "http://www.w3.org/Graphics/SVG/1.1/DTD/svg11.dtd">
<svg width="100%" height="100%" viewBox="0 0 800 800" version="1.1" xmlns="http://www.w3.org/2000/svg" xmlns:xlink="http://www.w3.org/1999/xlink" xml:space="preserve" xmlns:serif="http://www.serif.com/" style="fill-rule:evenodd;clip-rule:evenodd;stroke-linejoin:round;stroke-miterlimit:2;">
    <g transform="matrix(1.15961,0,0,0.699038,-63.8436,232.656)">
        <g transform="matrix(1.26243,0,0,2.0942,77.0019,-345.416)">
            <path d="M238.768,494L183.757,494L183.174,490.61L181.739,486.87L179.639,483.512L176.939,480.614L173.698,478.259L169.988,476.548L165.917,475.587C139.888,472.159 115.235,467.343 94.004,461.385C113.492,436.917 128.066,415.684 140.9,394.6C172.8,401.1 202.9,397 227.4,387.1C263.4,372.5 288.9,346.3 289.3,318.8L289.5,306.6L277.8,310.1C236.8,322.2 205.9,323.2 182.9,317.5C191.4,301.1 200.7,283.2 211.7,262.9C211.7,262.9 193.8,263.1 174.9,246.6C157,231.1 150.3,192.9 173.4,197.6C205.5,204.2 228.5,222.3 228.5,222.3C229.5,221.3 230.6,220.4 231.6,219.5L238.8,216.1C266.6,202.8 301.6,187.6 334.9,183.8C337,183.6 339.1,183.4 341.3,183.2L347.9,182.9L350.5,182.9C356.5,182.9 362.3,183.5 368,184.5L372.8,185.3C381.8,192.7 402.8,210.5 414.5,226.8C424.7,241 437.2,270 437.2,270C455.3,286.1 490.3,296.5 495.6,322.4C499,338.7 485.9,364.3 477.9,366.3C450.4,373.2 395.8,359.2 351.9,348.9C355,361.3 356.7,374.2 357.5,387.4L374.5,442.8L358.9,438.6L367.4,467.7L356.5,462.4C356.348,466.505 356.21,470.567 356.104,474.591C344.64,476.176 332.715,477.499 320.45,478.534C321.611,473.853 320.988,468.73 318.303,464.277C312.937,455.375 301.353,452.505 292.451,457.871L246.131,485.794C242.86,487.766 240.325,490.645 238.768,494ZM353.5,223.7C344.1,258.8 368.2,260.5 392.9,262.4C396.7,233.4 373.8,227.1 353.5,223.7ZM189.6,19.18C162,46.06 150.9,71.02 149,94.29C147.3,115.5 153.3,135.8 163.6,155.1C174.8,152.3 186.8,152.4 198.3,156C202.8,136.9 208.8,117.4 222.6,100C237,81.94 259.5,66.9 295.1,56.53C273.1,39.58 247,28.33 219.2,22.9C209,20.91 199.1,19.67 189.6,19.18ZM164.5,19.59C132.9,22.35 106,33.78 84.23,51.42C67.71,64.78 54.04,81.86 43.58,101.7L44.96,101.5C51.24,146.5 76.55,171.9 120.4,185.1C127.4,175.2 136.5,167.2 146.7,161.7C135.9,140.8 129.1,117.6 131.1,92.84C133,69.08 143.2,44.33 164.5,19.59ZM311.3,70.84C271.3,80.53 249.8,94.83 236.7,111.2C224.7,126.4 219.5,144 215.1,163.4C222.4,167.6 228,172.6 232.2,178.2C236.2,183.6 238.8,189.4 240.8,195.3C274.2,179.6 317,162.1 358.8,165.2C351.8,125.9 334.8,94.39 311.3,70.84ZM32.5,127C27.67,140.6 24.13,155.1 21.98,170.3C17.44,202.3 21.67,237.8 32.96,270.2C62.67,273.1 86.72,267.6 105.7,248.4C105.1,242.9 104.9,237.3 105,231.7C105.2,220.7 107.5,210.3 111.4,201C72.69,188.1 44.7,163.7 32.5,127ZM109.6,269C89.99,284.2 66,289.6 40.35,288.6C54.62,320.1 75.91,346.7 102.4,361.4C120.7,350.4 132.8,328.5 128.4,305C119.5,294.5 113.3,282.1 109.6,269ZM147,321.6C145.1,340.8 135.3,358.2 121.1,370.1C145,379.3 168,381.4 188.6,378.7C197.4,363 196.8,350.4 191.3,337.3C173.8,335 159.1,329.5 147,321.6ZM267.7,331.2C246.5,336.4 227.4,338.8 210.5,338.6C213.5,349.8 213.7,361.8 210,374.2C213.6,373 217.2,371.8 220.6,370.4C244.2,360.9 260.8,345 267.7,331.2Z" style="fill-rule:nonzero;"/>
        </g>
        <g transform="matrix(-14.619,0,0,14.619,750.857,135.57)">
            <path d="M20.422,33.837C20.036,33.451 19.532,33.658 19.299,34.299C19.066,34.941 19.191,35.776 19.578,36.163L22.415,39L19.578,41.837C19.191,42.224 19.066,43.059 19.299,43.701C19.532,44.342 20.036,44.549 20.422,44.163L24.422,40.163C24.668,39.917 24.818,39.476 24.818,39C24.818,38.524 24.668,38.083 24.422,37.837L20.422,33.837Z"/>
        </g>
        <g transform="matrix(-14.619,0,0,14.619,750.857,135.57)">
            <path d="M31.893,36.822C31.445,36.92 31.13,37.602 31.189,38.345C31.248,39.088 31.659,39.612 32.107,39.514C37.211,38.399 41.735,36.231 43.996,33.61C45.209,32.203 45.818,30.59 45.818,29C45.818,27.793 45.524,26.605 44.926,25.493C44.192,24.128 42.956,22.838 41.305,21.739C40.886,21.46 40.409,21.798 40.241,22.494C40.072,23.189 40.276,23.98 40.695,24.259C41.847,25.025 42.769,25.871 43.399,26.797C43.877,27.502 44.182,28.215 44.182,29C44.182,29.507 44.003,29.974 43.733,30.445C43.348,31.117 42.783,31.747 42.082,32.348C39.757,34.344 36.021,35.92 31.893,36.822ZM24,40.357C24.452,40.357 24.818,39.749 24.818,39C24.818,38.251 24.452,37.643 24,37.643C16.431,37.643 9.38,35.541 5.834,32.398C5.156,31.797 4.615,31.167 4.25,30.495C3.986,30.009 3.818,29.522 3.818,29C3.818,28.215 4.123,27.502 4.601,26.797C5.231,25.871 6.153,25.025 7.305,24.259C7.724,23.98 7.928,23.189 7.759,22.494C7.591,21.798 7.114,21.46 6.695,21.739C5.044,22.838 3.808,24.128 3.074,25.493C2.476,26.605 2.182,27.793 2.182,29C2.182,31.029 3.162,33.108 5.063,34.793C8.761,38.071 16.105,40.357 24,40.357Z"/>
        </g>
    </g>
</svg>
