<?xml version="1.0" encoding="UTF-8" standalone="no"?>
<!DOCTYPE svg PUBLIC "-//W3C//DTD SVG 1.1//EN" "http://www.w3.org/Graphics/SVG/1.1/DTD/svg11.dtd">
<svg width="100%" height="100%" viewBox="0 0 800 800" version="1.1" xmlns="http://www.w3.org/2000/svg" xmlns:xlink="http://www.w3.org/1999/xlink" xml:space="preserve" xmlns:serif="http://www.serif.com/" style="fill-rule:evenodd;clip-rule:evenodd;stroke-linejoin:round;stroke-miterlimit:2;">
    <g transform="matrix(1.5625,0,0,1.5625,0,0)">
        <path d="M232.824,13.738C136.724,21.12 17.534,62.273 17.534,132.121C17.534,197.205 135.149,239.965 263.024,225.659C353.781,215.509 430.154,179.842 463.602,136.507C419.522,218.832 319.899,242.847 229.725,252.697C341.979,257.847 492.255,219.709 492.255,128.467C492.255,63.94 374.64,20.627 246.765,34.933C156.007,45.082 80.41,80.75 46.96,124.084C65.37,74.819 138.42,30.214 232.824,13.738ZM288.864,54.602C366.251,53.984 425.531,78.268 425.531,112.836C425.531,117.566 424.419,122.269 422.304,126.889C390.484,106.717 334.249,90.389 273.13,87.741C267.025,87.477 260.873,87.354 254.693,87.388C252.633,87.398 250.571,87.426 248.506,87.473C197.034,88.63 144.276,100.903 103.393,132.333C108.415,95.756 178.535,61.905 264.313,55.605C272.66,54.992 280.86,54.663 288.865,54.6L288.864,54.602ZM254.828,106.084C260.676,106.047 266.513,106.161 272.32,106.412C329.806,108.902 384.176,125.544 411.416,142.17C404.796,148.962 396.03,155.408 385.52,161.31C360.63,149.86 322.058,142.25 279.6,142.168C276.356,142.162 273.09,142.2 269.805,142.283C225.779,143.4 178.621,153.147 141.357,178.373C125.534,171.549 113.877,162.859 107.817,152.811C146.651,119.333 201.144,106.421 254.827,106.085L254.828,106.084ZM279.545,160.874C310.828,161.047 340.379,166.014 361.723,172.549C334.66,183.342 300.919,191.055 264.313,193.743C226.627,196.511 191.99,193.5 164.539,186.233C195.773,169.321 233.799,161.891 270.279,160.966C273.379,160.886 276.469,160.856 279.544,160.874L279.545,160.874ZM81.873,230.83C87.031,235.265 92.158,239.413 97.26,243.275C97.387,243.512 97.524,243.747 97.65,243.985L98.242,244.008C159.812,290.223 217.932,296.334 286.307,295.998C286.309,295.998 286.312,295.998 286.314,295.996L286.314,295.998L286.307,295.998C212.32,316.574 152.071,315.52 100.807,287.682C175.733,385.789 343.077,340.255 436.027,241.045C392.995,264.152 325.967,276.913 250.709,272.887C184.469,269.343 124.611,253.477 81.872,230.83L81.873,230.83Z" style="fill-rule:nonzero;"/>
    </g>
    <g transform="matrix(-0.893513,0,0,0.893513,680.148,68.2909)">
        <path d="M217.532,651.541C243.339,676.171 272.556,693.752 301.827,702.345C324.173,708.908 346.955,710.077 367.783,704.302C357.378,724.481 350.127,732.353 342.138,755.168C341.575,756.784 340.391,757.628 339.404,758.862L279.175,758.862C249.076,718.646 229.263,691.603 217.532,651.541Z"/>
    </g>
    <g transform="matrix(-0.893513,0,0,0.893513,680.148,68.2909)">
        <path d="M217.532,651.541C217.531,651.54 217.53,651.54 217.53,651.539L217.531,651.539C217.531,651.54 217.532,651.54 217.532,651.541Z"/>
    </g>
    <g transform="matrix(1,0,0,1,52,-0.726104)">
        <path d="M409.756,623.472C401.588,647.433 389.013,662.02 374.338,670.277C356.684,680.209 334.547,681.517 310.053,674.323C285.231,667.038 258.764,650.719 235.131,627.413C264.506,640.983 299.323,644.877 335.3,641.217C359.866,638.717 385.111,632.706 409.756,623.472Z"/>
    </g>
    <g transform="matrix(1.24143,0,0,0.51475,85.4517,546.036)">
        <path d="M252.314,19.957C180.278,20.32 109.324,53.491 63.134,115.927C-6.696,210.317 4.009,339.247 82.984,420.92L45.746,471.252L196.966,448.639L174.35,297.42L131.213,355.728C87.133,301.346 83.49,222.082 127.053,163.198C157.729,121.732 204.916,99.694 252.811,99.445C269.155,99.36 285.577,101.827 301.456,106.912L294.493,60.362C270.635,55.502 246.585,55.336 223.476,59.365C164.244,66.687 109.482,99.283 75.319,150.58C110.969,84.69 179.093,44.662 251.362,42.836C253.035,42.794 254.709,42.773 256.385,42.771C271.185,42.761 286.133,44.367 300.982,47.676L349.59,40.408C318.45,26.502 285.27,19.788 252.316,19.955L252.314,19.957ZM465.244,42.012L314.027,64.622L336.641,215.842L377.767,160.254C419.971,214.544 422.859,292.302 379.954,350.297C339.734,404.664 271.134,425.617 209.764,407.863L216.286,451.461C245.012,456.994 274.522,455.875 302.489,448.391C339.937,442.434 375.829,426.341 405.649,400.663C356.453,455.313 283.034,478.177 213.905,465.003L158.105,473.347C257.135,517.047 376.507,488.117 443.615,397.409C512.745,303.964 502.955,176.666 426.132,94.879L465.246,42.013L465.244,42.012Z" style="fill-rule:nonzero;"/>
    </g>
</svg>
